<svg width="512" height="512" viewBox="0 0 152 152" fill="none" xmlns="http://www.w3.org/2000/svg">
  <path d="M 64,3.5 H 87.5 A 60.5,60.5 0 0 1 148,64 V 87.5 A 60.5,60.5 0 0 1 87.5,148 H 64 A 60.5,60.5 0 0 1 3.5,87.5 V 64 A 60.5,60.5 0 0 1 64,3.5 Z" fill="#118CFA" stroke="#88C6FD" stroke-width="7"/>
  <path d="M75.45,78H74.85H75.45L83.4,45.15L89.85,21H108.6L115.35,126H95.7L92.85,68.7H92.1L81.3,111H69L58.2,68.7H57.45L54.6,126H34.95L41.7,21H60.45L66.9,45.15L74.85,78H75.45Z" fill="white"/>
</svg>
